<?xml version="1.0" standalone="no"?>
<!DOCTYPE svg PUBLIC "-//W3C//DTD SVG 20010904//EN"
 "http://www.w3.org/TR/2001/REC-SVG-20010904/DTD/svg10.dtd">
<svg version="1.0" xmlns="http://www.w3.org/2000/svg"
 width="1224.000000pt" height="1224.000000pt" viewBox="0 0 1224.000000 1224.000000"
 preserveAspectRatio="xMidYMid meet">
<metadata>
Created by potrace 1.11, written by Peter Selinger 2001-2013
</metadata>
<g transform="translate(0.000000,1224.000000) scale(0.100000,-0.100000)"
fill="#000000" stroke="none">
<path d="M115 8633 c-35 -9 -75 -44 -95 -83 -20 -39 -20 -68 -20 -2427 l0
-2389 22 -44 c15 -30 36 -52 63 -67 l39 -22 5994 0 c3976 0 6003 3 6020 10 37
14 91 76 97 113 3 17 4 1107 3 2422 l-3 2391 -29 37 c-16 21 -44 44 -62 52
-28 12 -949 14 -6021 13 -3293 -1 -5997 -4 -6008 -6z"/>
</g>
</svg>
